<?xml version="1.0" encoding="iso-8859-1"?>
<!-- Generator: Adobe Illustrator 18.0.0, SVG Export Plug-In . SVG Version: 6.00 Build 0)  -->
<!DOCTYPE svg PUBLIC "-//W3C//DTD SVG 1.1//EN" "http://www.w3.org/Graphics/SVG/1.1/DTD/svg11.dtd">
<svg version="1.1" id="Capa_1" xmlns="http://www.w3.org/2000/svg" xmlns:xlink="http://www.w3.org/1999/xlink" x="0px" y="0px"
	 viewBox="0 0 296.631 296.631" style="enable-background:new 0 0 296.631 296.631;" xml:space="preserve">
<g>
	<path d="M295.112,230.271l-13.598-20.752c-2.81-4.288-8.563-5.486-12.851-2.677l-75.814,49.676
		c-4.288,2.81-5.486,8.563-2.677,12.851l13.598,20.752c2.81,4.288,8.563,5.486,12.851,2.677l75.814-49.677
		C296.723,240.312,297.921,234.558,295.112,230.271z"/>
	<path d="M205.731,229.83l24.823-16.265c21.194-13.887,26.005-42.135,13.272-61.565l-36.978-56.433
		c-4.591-7.005-13.989-8.961-20.991-4.372c-4.559,2.987-6.962,8.012-6.831,13.087l-2.701-4.122
		c-4.589-7.004-13.987-8.961-20.991-4.372c-4.559,2.987-6.963,8.013-6.831,13.089l-1.871-2.855
		c-4.589-7.003-13.989-8.96-20.991-4.372c-4.559,2.987-6.963,8.012-6.831,13.088L93.672,76.374
		c-4.589-7.003-13.989-8.96-20.991-4.372c-7.004,4.589-8.961,13.987-4.372,20.991l62.509,95.399l-26.165-8.915
		c-7.934-2.701-16.541,1.536-19.241,9.462c-2.7,7.926,1.536,16.541,9.462,19.241l73.569,25.065
		c4.894,2.037,10.151,3.107,15.455,3.107C191.406,236.352,198.995,234.243,205.731,229.83z"/>
	<path d="M69.397,31.404L43.235,5.242c-3.905-3.903-10.235-3.904-14.143,0L2.929,31.404c-3.905,3.905-3.905,10.237,0,14.142
		c3.906,3.904,10.236,3.905,14.143,0l9.092-9.092v154.157c0,5.522,4.478,10,10,10c5.522,0,10-4.478,10-10V36.455l9.091,9.091
		c1.953,1.952,4.512,2.929,7.071,2.929c2.559,0,5.118-0.977,7.071-2.929C73.302,41.641,73.302,35.309,69.397,31.404z"/>
</g>
<g>
</g>
<g>
</g>
<g>
</g>
<g>
</g>
<g>
</g>
<g>
</g>
<g>
</g>
<g>
</g>
<g>
</g>
<g>
</g>
<g>
</g>
<g>
</g>
<g>
</g>
<g>
</g>
<g>
</g>
</svg>
