<svg width="400" height="400" xmlns="http://www.w3.org/2000/svg">

 <g>
  <rect fill="none" id="canvas_background" height="402" width="402" y="-1" x="-1"/>
  <g display="none" overflow="visible" y="0" x="0" height="100%" width="100%" id="canvasGrid">
   <rect fill="url(#gridpattern)" stroke-width="0" y="0" x="0" height="100%" width="100%"/>
  </g>
 </g>
 <g>
    <path opacity="0.6" stroke="#000" transform="rotate(91.45445251464844 77.46248626708984,149.75003051757812) " id="svg_1" d="m27.295809,149.750032l21.500008,-47.000005l57.333351,0l21.500002,47.000005l-21.500002,47.000005l-57.333351,0l-21.500008,-47.000005z" stroke-width="0" fill="#fff200">
        <animate
            attributeType="CSS"
            attributeName="opacity"
            from="0.6"
            to="1"
            dur="4s"
            values="0.6;1;0;0.6"
            repeatCount="indefinite"/>
    </path>
    <path opacity="0.3" stroke="#000" transform="rotate(23.760705947875977 295.6391906738279,303.25003051757807) " id="svg_2" d="m252.394165,303.25003l18.53359,-37.482078l49.422899,0l18.533582,37.482078l-18.533582,37.482086l-49.422899,0l-18.53359,-37.482086z" stroke-width="0" fill="#fff200">
        <animate
            attributeType="CSS"
            attributeName="opacity"
            from="0.3"
            to="1"
            dur="4s"
            values="0.3;1;0.3"
            repeatCount="indefinite"/>
    </path>
    <path opacity="0.3" stroke="#000" transform="rotate(65.52574920654297 308.63919067382807,115.75003814697264) " id="svg_3" d="m272.22027,115.750035l15.608115,-34.374948l41.621627,0l15.608115,34.374948l-15.608115,34.374957l-41.621627,0l-15.608115,-34.374957z" stroke-width="0" fill="#fff200">
        <animate
            attributeType="CSS"
            attributeName="opacity"
            from="0.3"
            to="1"
            dur="3s"
            values="0.3;1;0.3"
            repeatCount="indefinite"/>
    </path>
    <path opacity="0.7" stroke="#000" transform="rotate(98.55812072753906 108.6391830444336,298.7500305175781) " id="svg_4" d="m81.470491,298.750027l11.643731,-26.665662l31.049924,0l11.643731,26.665662l-11.643731,26.665662l-31.049924,0l-11.643731,-26.665662z" stroke-width="0" fill="#fff200">
        <animate
            attributeType="CSS"
            attributeName="opacity"
            from="0.7"
            to="0.9"
            dur="4s"
            values="0.7;0;0.9;0.7"
            repeatCount="indefinite"/>
    </path>
    <path opacity="1" stroke="#000" transform="rotate(161.41647338867188 197.13919067382812,218.25003051757812) " id="svg_5" d="m178.949511,218.250032l7.795576,-17.398667l20.788193,0l7.795576,17.398667l-7.795576,17.398667l-20.788193,0l-7.795576,-17.398667z" stroke-width="0" fill="#fff200">
        <animate
            attributeType="CSS"
            attributeName="opacity"
            from="1"
            to="0.2"
            dur="5s"
            values="1;0;1"
            repeatCount="indefinite"/>
    </path>
    <path opacity="1" stroke="#000" transform="rotate(161.41647338867188 185.13919067382815,63.750022888183594) " id="svg_6" d="m172.501929,63.750018l5.415971,-10.297912l14.442573,0l5.415971,10.297912l-5.415971,10.297918l-14.442573,0l-5.415971,-10.297918z" stroke-width="0" fill="#fff200">
        <animate
            attributeType="CSS"
            attributeName="opacity"
            from="1"
            to="0.4"
            dur="4s"
            values="1;0.4;1"
            repeatCount="indefinite"/>
    </path>
    <path opacity="1" stroke="#000" transform="rotate(-141.28073120117188 310.1391906738281,187.75003051757812) " id="svg_7" d="m297.50193,187.75002l5.41597,-10.29791l14.44257,0l5.41597,10.29791l-5.41597,10.29792l-14.44257,0l-5.41597,-10.29792z" stroke-width="0" fill="#fff200">
        <animate
            attributeType="CSS"
            attributeName="opacity"
            from="1"
            to="0"
            dur="5s"
            values="1;0;1"
            repeatCount="indefinite"/>
    </path>
    <path opacity="0.4" stroke="#000" transform="rotate(-146 245.63919067382812,56.25003814697266) " id="svg_8" d="m237.61254,56.250035l3.439994,-6.944959l9.173306,0l3.439994,6.944959l-3.439994,6.944965l-9.173306,0l-3.439994,-6.944965z" stroke-width="0" fill="#fff200">
        <animate
            attributeType="CSS"
            attributeName="opacity"
            from="0.4"
            to="1"
            dur="4s"
            values="0.4;1;0.4"
            repeatCount="indefinite"/>
    </path>
 </g>
</svg>