<svg width="400" height="400" xmlns="http://www.w3.org/2000/svg"><path fill="none" d="M-1-1h402v402H-1z"/><path d="M77.462 99.583l47 21.5v57.334l-47 21.5-47-21.5v-57.334l47-21.5z"><animate attributeType="CSS" attributeName="opacity" from=".6" to="1" dur="4s" values="0.6;1;0;0.6" repeatCount="indefinite"/></path><path d="M255.62 286.823l32.505-27.835 45.233 19.914 1.422 42.77-32.504 27.834-45.234-19.914-1.421-42.77z"><animate attributeType="CSS" attributeName="opacity" from=".3" to="1" dur="4s" values="0.3;1;0.3" repeatCount="indefinite"/></path><path d="M290.896 83.812l35.098 1.173 17.243 37.882-22.165 27.238-35.097-1.173-17.244-37.882 22.165-27.238z"><animate attributeType="CSS" attributeName="opacity" from=".3" to="1" dur="3s" values="0.3;1;0.3" repeatCount="indefinite"/></path><path d="M112.682 271.884l24.512 16.305-4.95 32.897-28.225 8.368-24.513-16.305 4.951-32.897 28.225-8.368z"><animate attributeType="CSS" attributeName="opacity" from=".7" to=".9" dur="4s" values="0.7;0;0.9;0.7" repeatCount="indefinite"/></path><path d="M214.38 212.453l-2.518 19.203-21.5 7.229-13.609-13.78 2.519-19.203 21.5-7.23 13.608 13.781z"><animate attributeType="CSS" attributeName="opacity" from="1" to=".2" dur="5s" values="1;0;1" repeatCount="indefinite"/></path><path d="M194.582 54.672l3.019 12.334-11.224 9.089-11.437-5.517-3.019-12.334 11.224-9.089 11.437 5.517z"><animate attributeType="CSS" attributeName="opacity" from="1" to=".4" dur="4s" values="1;0.4;1" repeatCount="indefinite"/></path><path d="M319.437 196.355l-11.228 5.348-11.269-9.034 2.778-12.123 11.228-5.348 11.269 9.034-2.778 12.123z"><animate attributeType="CSS" attributeName="opacity" from="1" to="0" dur="5s" values="1;0;1" repeatCount="indefinite"/></path><path d="M252.838 59.931l-7.28 4.641-7.605-5.13 1.576-8.488 7.28-4.64 7.605 5.129-1.576 8.488z"><animate attributeType="CSS" attributeName="opacity" from=".4" to="1" dur="4s" values="0.4;1;0.4" repeatCount="indefinite"/></path></svg>