<svg width="400" height="400" xmlns="http://www.w3.org/2000/svg"><path fill="none" d="M-1-1h402v402H-1z"/><path d="M77.462 99.583l47 21.5v57.334l-47 21.5-47-21.5v-57.334l47-21.5z" opacity=".6"><animate attributeType="CSS" attributeName="opacity" from=".6" to="1" dur="4s" values="0.6;1;0;0.6" repeatCount="indefinite"/></path><path fill="#fff200" d="M255.62 286.823l32.505-27.835 45.233 19.914 1.422 42.77-32.504 27.834-45.234-19.914-1.421-42.77zm35.276-203.011l35.098 1.173 17.243 37.882-22.165 27.238-35.097-1.173-17.244-37.882 22.165-27.238z" opacity=".3"/><path fill="#fff200" d="M112.682 271.884l24.512 16.305-4.95 32.897-28.225 8.368-24.513-16.305 4.951-32.897 28.225-8.368z" opacity=".7"/><path fill="#fff200" d="M214.38 212.453l-2.518 19.203-21.5 7.229-13.609-13.78 2.519-19.203 21.5-7.23 13.608 13.781zM194.582 54.672l3.019 12.334-11.224 9.089-11.437-5.517-3.019-12.334 11.224-9.089 11.437 5.517zm124.855 141.683l-11.228 5.348-11.269-9.034 2.778-12.123 11.228-5.348 11.269 9.034-2.778 12.123z"/><path fill="#fff200" d="M252.838 59.931l-7.28 4.641-7.605-5.13 1.576-8.488 7.28-4.64 7.605 5.129-1.576 8.488z" opacity=".4"/></svg>