<svg width="400" height="400" xmlns="http://www.w3.org/2000/svg"><path fill="none" d="M-1-1h402v402H-1z"/><g fill="#fff200"><path d="M77.462 99.583l47 21.5v57.334l-47 21.5-47-21.5v-57.334l47-21.5z" opacity=".6"/><path d="M255.62 286.823l32.505-27.835 45.233 19.914 1.422 42.77-32.504 27.834-45.234-19.914-1.421-42.77zm35.276-203.011l35.098 1.173 17.243 37.882-22.165 27.238-35.097-1.173-17.244-37.882 22.165-27.238z" opacity=".3"/><path d="M112.682 271.884l24.512 16.305-4.95 32.897-28.225 8.368-24.513-16.305 4.951-32.897 28.225-8.368z" opacity=".7"/><path d="M214.38 212.453l-2.518 19.203-21.5 7.229-13.609-13.78 2.519-19.203 21.5-7.23 13.608 13.781zM194.582 54.672l3.019 12.334-11.224 9.089-11.437-5.517-3.019-12.334 11.224-9.089 11.437 5.517zm124.855 141.683l-11.228 5.348-11.269-9.034 2.778-12.123 11.228-5.348 11.269 9.034-2.778 12.123z"/><path d="M252.838 59.931l-7.28 4.641-7.605-5.13 1.576-8.488 7.28-4.64 7.605 5.129-1.576 8.488z" opacity=".4"/></g></svg><svg width="400" height="400" xmlns="http://www.w3.org/2000/svg"><path fill="none" d="M-1-1h402v402H-1z"/><g fill="#fff200"><path opacity=".6" d="M78.736 99.6l46.439 22.686-1.455 57.314-47.53 20.3-46.44-22.685 1.455-57.315 47.53-20.3z"><animate attributeType="CSS" attributeName="opacity" from=".6" to="1" dur="4s" values="0.6;1;0;0.6" repeatCount="indefinite"/></path><path opacity=".3" d="M256.06 285.826l32.065-26.838 45.233 19.914 1.86 41.772-32.064 26.838-45.234-19.914-1.86-41.772z"><animate attributeType="CSS" attributeName="opacity" from=".3" to="1" dur="4s" values="0.3;1;0.3" repeatCount="indefinite"/></path><path opacity=".3" d="M293.551 82.603l37.753-.035 17.243 37.882-24.82 28.447-37.752.035-17.244-37.882 24.82-28.447z"><animate attributeType="CSS" attributeName="opacity" from=".3" to="1" dur="3s" values="0.3;1;0.3" repeatCount="indefinite"/></path><path opacity=".7" d="M112.682 271.884l24.636 15.482-4.62 30.704-28.102 7.546-24.636-15.482 4.62-30.704 28.102-7.546z"><animate attributeType="CSS" attributeName="opacity" from=".7" to=".9" dur="4s" values="0.7;0;0.9;0.7" repeatCount="indefinite"/></path><path d="M214.38 212.453l-1.844 18.976-19.704 6.625-12.934-14.007 1.844-18.976 19.705-6.625 12.933 14.007z"><animate attributeType="CSS" attributeName="opacity" from="1" to=".2" dur="5s" values="1;0;1" repeatCount="indefinite"/></path><path d="M197.118 59.723l-1.852 11.487-13.69 4.602-8.415-8.035 1.852-11.487 13.69-4.602 8.415 8.035z"><animate attributeType="CSS" attributeName="opacity" from="1" to=".4" dur="4s" values="1;0.4;1" repeatCount="indefinite"/></path><path d="M319.999 195.655l-10.667 4.647-11.268-9.034 2.215-11.423 10.667-4.647 11.269 9.034-2.216 11.423z"><animate attributeType="CSS" attributeName="opacity" from="1" to="0" dur="5s" values="1;0;1" repeatCount="indefinite"/></path><path opacity=".4" d="M252.294 60.738l-6.736 3.834-7.605-5.13 1.032-7.68 6.735-3.834 7.605 5.13-1.031 7.68z"><animate attributeType="CSS" attributeName="opacity" from=".4" to="1" dur="4s" values="0.4;1;0.4" repeatCount="indefinite"/></path></g></svg>